<?xml version="1.0" standalone="no"?>
<!DOCTYPE svg PUBLIC "-//W3C//DTD SVG 20010904//EN"
 "http://www.w3.org/TR/2001/REC-SVG-20010904/DTD/svg10.dtd">
<svg version="1.0" xmlns="http://www.w3.org/2000/svg"
 width="1024.000000pt" height="1024.000000pt" viewBox="0 0 1024.000000 1024.000000"
 preserveAspectRatio="xMidYMid meet">

<g transform="translate(0.000000,1024.000000) scale(0.100000,-0.100000)"
fill="#F9CECE" stroke="none">
<path d="M4140 7745 c-113 -22 -180 -58 -180 -97 0 -11 19 -32 47 -51 159
-108 224 -229 193 -357 -14 -60 -54 -113 -192 -258 -299 -315 -510 -712 -589
-1110 -29 -150 -42 -168 -144 -202 -226 -75 -378 -213 -424 -386 -22 -82 5
-95 115 -58 65 22 106 27 229 33 83 4 159 12 171 19 18 10 25 7 50 -19 16 -17
85 -59 154 -94 76 -39 147 -84 182 -115 98 -88 123 -66 116 104 -4 81 -11 126
-27 167 -22 59 -83 153 -131 204 -51 54 -53 75 -13 136 20 30 79 97 132 149
284 283 710 532 1126 658 127 39 226 64 231 59 8 -8 -28 -126 -61 -194 -47
-101 -107 -187 -187 -267 -37 -37 -68 -72 -68 -77 0 -6 11 -21 25 -34 29 -30
75 -32 187 -11 114 22 225 70 341 146 166 110 287 257 363 442 l27 67 106 35
c309 102 545 149 822 166 141 8 191 23 232 68 28 31 31 82 7 120 -24 40 -63
57 -184 83 -107 24 -145 49 -184 121 -177 331 -472 460 -1010 445 -194 -5
-289 -16 -509 -59 l-111 -21 -139 68 c-162 79 -216 99 -325 120 -97 18 -287
18 -378 0z m2165 -610 c30 -30 31 -54 4 -89 -26 -33 -73 -35 -106 -4 -29 27
-29 57 -2 92 27 34 71 35 104 1z"/>
<path d="M1550 4412 l0 -774 308 5 c348 4 372 8 530 83 169 81 278 221 334
429 18 68 21 107 21 260 0 209 -14 282 -83 413 -71 138 -180 236 -329 296
-115 46 -192 56 -499 58 l-282 3 0 -773z m641 449 c117 -45 192 -144 223 -294
40 -193 0 -406 -97 -514 -73 -81 -195 -123 -359 -123 l-88 0 0 481 0 481 133
-4 c104 -4 144 -9 188 -27z"/>
<path d="M4390 4415 l0 -775 450 0 450 0 0 150 0 150 -285 0 -285 0 0 625 0
625 -165 0 -165 0 0 -775z"/>
<path d="M5520 4416 l0 -776 155 0 155 0 0 265 0 265 173 0 c195 0 267 13 358
62 240 127 321 496 162 735 -44 67 -101 116 -178 153 -119 58 -151 63 -502 67
l-323 5 0 -776z m667 452 c102 -56 125 -229 45 -337 -43 -58 -97 -74 -259 -79
l-143 -4 0 219 c0 121 2 222 4 224 2 2 76 2 163 -1 124 -4 165 -9 190 -22z"/>
<path d="M6820 4415 l0 -775 160 0 160 0 0 775 0 775 -160 0 -160 0 0 -775z"/>
<path d="M7430 4415 l0 -775 160 0 160 0 0 493 0 492 296 -492 295 -493 170 0
169 0 0 775 0 775 -165 0 -165 0 -2 -477 -3 -477 -101 165 c-56 90 -186 305
-289 477 l-188 312 -169 0 -168 0 0 -775z"/>
<path d="M3370 4959 c-30 -5 -93 -28 -139 -50 -147 -72 -262 -209 -306 -363
-25 -87 -16 -265 17 -361 54 -151 154 -312 313 -500 192 -228 196 -230 288
-132 85 90 253 300 310 387 172 264 205 516 94 724 -65 122 -200 237 -323 275
-77 24 -182 33 -254 20z m163 -330 c49 -13 115 -73 138 -124 24 -53 24 -147 0
-200 -78 -171 -327 -181 -413 -16 -22 42 -28 67 -28 115 1 164 143 270 303
225z"/>
<path d="M1961 3094 c-22 -18 -31 -35 -31 -56 0 -47 16 -66 81 -89 34 -12 63
-28 66 -36 14 -37 -63 -59 -98 -27 -14 13 -20 13 -38 2 -25 -16 -23 -26 12
-52 57 -42 159 -16 180 47 15 45 -10 78 -77 104 -69 26 -81 40 -59 65 19 21
39 22 73 3 22 -12 27 -11 43 2 24 22 22 28 -17 47 -51 24 -99 21 -135 -10z"/>
<path d="M2210 3107 c1 -7 16 -73 34 -147 l33 -135 30 -3 c31 -3 31 -2 58 80
15 46 30 86 34 90 4 4 19 -33 34 -83 l28 -90 31 3 32 3 33 130 c39 158 40 160
8 161 -26 2 -28 -1 -45 -81 -6 -27 -16 -68 -22 -90 l-10 -40 -32 105 c-28 96
-33 105 -55 105 -23 0 -27 -9 -53 -95 -15 -52 -30 -99 -32 -105 -1 -5 -14 37
-27 95 -23 100 -25 105 -52 107 -16 1 -27 -3 -27 -10z"/>
<path d="M2690 2968 l0 -148 25 0 25 0 0 148 0 147 -25 0 -25 0 0 -147z"/>
<path d="M2874 3105 c-1 -5 -6 -72 -11 -148 l-8 -137 26 0 c27 0 27 1 36 93
l8 92 35 -62 c48 -85 68 -85 112 0 l32 62 9 -92 9 -93 29 0 28 0 -5 63 c-3 34
-9 100 -12 147 -7 81 -8 85 -32 88 -23 3 -31 -6 -69 -79 -32 -59 -46 -77 -52
-68 -5 8 -25 43 -44 79 -29 55 -39 65 -61 65 -15 0 -28 -4 -30 -10z"/>
<path d="M3519 3097 c-10 -17 -99 -264 -99 -273 0 -2 13 -4 28 -4 22 0 30 7
39 30 11 28 14 30 68 30 53 0 57 -1 66 -30 9 -24 17 -30 40 -30 16 0 29 3 29
8 0 4 -24 70 -53 146 -50 133 -53 139 -80 141 -18 0 -32 -6 -38 -18z m59 -114
l20 -53 -39 0 c-24 0 -39 5 -39 12 0 15 32 100 36 96 1 -2 11 -27 22 -55z"/>
<path d="M3790 2968 l0 -148 95 0 c94 0 95 0 95 25 0 23 -3 24 -66 27 l-66 3
-1 119 -2 119 -27 1 -28 2 0 -148z"/>
<path d="M4121 3103 c-50 -26 -74 -64 -79 -125 -3 -44 0 -59 20 -87 37 -55 68
-72 127 -73 60 0 91 17 129 72 41 60 22 158 -40 203 -38 28 -114 33 -157 10z
m137 -69 c51 -58 8 -164 -68 -164 -47 0 -90 47 -90 97 0 92 98 135 158 67z"/>
<path d="M4445 3111 c-3 -2 -5 -69 -5 -148 l0 -143 30 0 29 0 3 95 3 95 73
-95 c57 -74 78 -95 97 -95 l25 0 0 149 c0 148 0 148 -22 147 -22 -1 -23 -6
-28 -99 l-5 -97 -77 98 c-53 67 -84 98 -98 98 -12 0 -23 -2 -25 -5z"/>
<path d="M4880 3102 c-76 -38 -105 -146 -60 -220 40 -65 143 -88 219 -49 21
11 23 18 23 82 l0 70 -56 3 -56 3 0 -31 c0 -28 3 -30 35 -30 39 0 39 1 25 -34
-8 -21 -16 -26 -45 -26 -42 0 -90 22 -99 45 -11 30 -6 90 9 112 8 12 31 27 50
33 29 9 41 9 67 -5 30 -15 34 -15 45 2 19 26 16 33 -22 49 -46 19 -92 18 -135
-4z"/>
<path d="M5320 3111 c0 -2 23 -40 50 -86 46 -75 50 -88 50 -144 l0 -61 30 0
30 0 0 65 c0 61 3 71 49 145 28 44 47 81 43 83 -4 2 -18 3 -32 3 -19 -1 -32
-13 -55 -53 -16 -29 -33 -52 -37 -53 -3 0 -20 24 -36 54 -27 47 -34 53 -61 52
-17 -1 -31 -3 -31 -5z"/>
<path d="M5710 3101 c-103 -54 -104 -205 -1 -264 63 -38 158 -18 196 39 90
137 -52 301 -195 225z m137 -62 c30 -29 37 -70 19 -112 -26 -64 -97 -78 -147
-28 -88 88 37 225 128 140z"/>
<path d="M6023 3102 c-3 -7 -4 -57 -1 -112 4 -116 20 -146 85 -169 34 -12 48
-13 82 -2 65 19 76 45 76 180 l0 115 -25 0 c-25 0 -25 0 -28 -104 -3 -119 -14
-140 -68 -140 -52 0 -64 26 -64 146 l0 102 -26 -2 c-15 0 -29 -7 -31 -14z"/>
<path d="M6385 3112 c-3 -3 -5 -70 -5 -149 l0 -143 30 0 c29 0 30 1 30 50 0
67 23 67 69 0 30 -43 39 -50 68 -50 l33 0 -36 55 -36 54 28 25 c24 20 29 31
28 67 -2 52 -37 88 -90 91 -95 4 -115 4 -119 0z m139 -68 c33 -33 7 -64 -53
-64 -29 0 -31 2 -31 40 0 39 1 40 34 40 19 0 42 -7 50 -16z"/>
<path d="M6850 3091 c0 -30 2 -31 43 -31 l42 0 -3 -120 -4 -120 31 0 31 0 0
120 0 120 46 0 c44 0 45 1 42 28 l-3 27 -112 3 -113 3 0 -30z"/>
<path d="M7213 3081 c-17 -41 -93 -250 -93 -257 0 -2 13 -4 29 -4 23 0 31 6
40 30 9 29 13 30 66 30 54 0 57 -2 68 -30 9 -23 17 -30 39 -30 15 0 28 3 28 7
0 4 -23 69 -51 144 -48 131 -52 137 -81 141 -27 4 -32 1 -45 -31z m66 -98 l21
-53 -40 0 c-25 0 -40 5 -40 12 0 15 32 100 36 96 1 -2 12 -27 23 -55z"/>
<path d="M7534 3110 c-29 -12 -54 -49 -54 -80 0 -34 35 -66 94 -86 51 -18 65
-36 46 -59 -16 -20 -60 -19 -88 1 -21 15 -25 15 -43 -2 -17 -16 -18 -19 -4
-34 44 -49 144 -45 185 7 42 54 18 100 -68 132 -70 25 -82 44 -46 68 23 15 28
15 59 0 31 -15 34 -15 49 2 23 25 20 30 -19 47 -38 16 -79 17 -111 4z"/>
<path d="M7767 3114 c-4 -4 -7 -18 -7 -31 0 -21 5 -23 45 -23 l45 0 0 -120 0
-120 28 0 27 0 -3 120 -3 120 51 0 c50 0 51 1 48 28 l-3 27 -110 3 c-61 2
-114 0 -118 -4z"/>
<path d="M8090 2968 l0 -148 100 0 100 0 0 25 c0 24 -2 25 -70 25 l-70 0 0 35
0 35 60 0 60 0 0 30 0 30 -60 0 -60 0 0 30 0 30 70 0 70 0 0 29 0 30 -100 -1
-100 -2 0 -148z"/>
</g>
</svg>
